<svg class="sh-footer--social-icon" viewBox="0 0 24 24" fill="none" xmlns="http://www.w3.org/2000/svg">
<path d="M23.9938 24V23.999H23.9998V15.197C23.9998 10.891 23.0728 7.57397 18.0388 7.57397C15.6188 7.57397 13.9948 8.90198 13.3318 10.161H13.2618V7.97597H8.48877V23.999H13.4588V16.065C13.4588 13.976 13.8548 11.956 16.4418 11.956C18.9908 11.956 19.0288 14.34 19.0288 16.199V24H23.9938Z" fill="#0077B5"></path>
<path d="M0.395996 7.97705H5.372V24H0.395996V7.97705Z" fill="#0077B5"></path>
<path d="M2.882 0C1.291 0 0 1.291 0 2.882C0 4.473 1.291 5.791 2.882 5.791C4.473 5.791 5.764 4.473 5.764 2.882C5.763 1.291 4.472 0 2.882 0V0Z" fill="#0077B5"></path>
</svg>