<svg class="sh-navbar--auth-subicon hover:text-brand-blue" viewBox="0 0 20 20" fill="currentColor" xmlns="http://www.w3.org/2000/svg">
<path d="M17.0676 2.92971C13.1616 -0.976298 6.8395 -0.976885 2.93294 2.92971C-0.208072 6.07068 -0.801614 10.7411 1.05536 14.4605L0.0258584 18.9889C-0.107956 19.5775 0.41956 20.1052 1.00837 19.9714L5.53682 18.9419C12.1211 22.2293 19.9951 17.47 19.9951 9.99706C19.9951 7.32743 18.9554 4.81753 17.0676 2.92971ZM12.0852 12.4859H5.83036C5.37697 12.4859 5.00942 12.1184 5.00942 11.665C5.00942 11.2116 5.37697 10.844 5.83036 10.844H12.0852C12.5386 10.844 12.9061 11.2116 12.9061 11.665C12.9061 12.1184 12.5386 12.4859 12.0852 12.4859ZM14.1701 9.15005H5.83036C5.37697 9.15005 5.00942 8.7825 5.00942 8.3291C5.00942 7.87571 5.37697 7.50816 5.83036 7.50816H14.1701C14.6235 7.50816 14.9911 7.87571 14.9911 8.3291C14.9911 8.7825 14.6235 9.15005 14.1701 9.15005Z" fill="#377dff"></path>
</svg>