<svg class="sh-navbar--auth-subicon hover:text-brand-blue" viewBox="0 0 20 16" fill="currentColor" xmlns="http://www.w3.org/2000/svg">
<path d="M0.417454 1.71703C3.16238 4.04168 7.97886 8.13145 9.39449 9.40664C9.58452 9.57875 9.78835 9.66625 9.99995 9.66625C10.2111 9.66625 10.4146 9.57957 10.6042 9.40828C12.021 8.13184 16.8375 4.04168 19.5825 1.71703C19.7534 1.57258 19.7794 1.31867 19.6411 1.14207C19.3212 0.733984 18.8444 0.5 18.3333 0.5H1.66663C1.15558 0.5 0.678665 0.733985 0.35886 1.14211C0.220501 1.31867 0.246556 1.57258 0.417454 1.71703Z" fill="#cccccc"></path>
<path d="M19.7586 2.9768C19.6109 2.90805 19.4371 2.93204 19.3142 3.03704C17.5166 4.56086 15.148 6.57422 13.3617 8.11067C13.2677 8.19125 13.2148 8.30965 13.2169 8.43375C13.2189 8.55746 13.2763 8.67422 13.3731 8.75153C15.0329 10.0809 17.5341 11.9095 19.3403 13.2091C19.4123 13.2612 19.4978 13.2877 19.5836 13.2877C19.6487 13.2877 19.7138 13.2726 19.7737 13.2417C19.9128 13.1705 20.0003 13.0272 20.0003 12.871V3.35481C20.0003 3.19247 19.9059 3.04477 19.7586 2.9768Z" fill="#cccccc"></path>
<path d="M0.66 13.2091C2.46664 11.9095 4.96828 10.0809 6.62762 8.75153C6.72445 8.67422 6.78184 8.55742 6.78387 8.43375C6.7859 8.30965 6.73301 8.19125 6.63902 8.11067C4.8527 6.57422 2.48371 4.56086 0.686055 3.03703C0.562344 2.93203 0.388203 2.90887 0.241719 2.97679C0.0944141 3.04476 0 3.19246 0 3.3548V12.871C0 13.0273 0.0875 13.1705 0.226641 13.2417C0.286445 13.2727 0.351562 13.2877 0.41668 13.2877C0.502539 13.2877 0.587969 13.2613 0.66 13.2091Z" fill="#cccccc"></path>
<path d="M19.4894 14.3428C17.745 13.0948 14.5317 10.7682 12.6136 9.21133C12.4573 9.08399 12.2311 9.08805 12.0773 9.2207C11.7009 9.54906 11.386 9.82578 11.1626 10.0268C10.4765 10.6461 9.52435 10.6461 8.8367 10.0259C8.61412 9.82536 8.2992 9.54781 7.92279 9.22067C7.77022 9.08719 7.54357 9.08313 7.38689 9.21129C5.47525 10.7628 2.2583 13.0923 0.511074 14.3427C0.413808 14.4127 0.351152 14.5206 0.338964 14.6398C0.327168 14.759 0.366621 14.8774 0.448418 14.9653C0.763808 15.3051 1.20814 15.5 1.66674 15.5H18.3334C18.792 15.5 19.2359 15.3051 19.5521 14.9653C19.6335 14.8778 19.6733 14.7594 19.6615 14.6402C19.6493 14.521 19.5867 14.4128 19.4894 14.3428Z" fill="#cccccc"></path>
</svg>