<svg viewBox="0 0 24 24" fill="white" xmlns="http://www.w3.org/2000/svg" style="color: rgb(204, 204, 204);">
<path d="M11.5948 4.49911L12 5.05935L12.4051 4.49913C12.8296 3.91225 13.3075 3.41423 13.8304 3.00973C14.8616 2.21233 16.0232 1.8125 17.2956 1.8125C19.0111 1.8125 20.5819 2.49751 21.7285 3.74103C22.8632 4.97189 23.5 6.66666 23.5 8.52502C23.5 10.4113 22.8038 12.1602 21.2348 14.0533L21.2348 14.0533C19.8158 15.7656 17.7661 17.5144 15.3373 19.5842L15.3372 19.5842L15.3165 19.6019C14.4958 20.3014 13.5646 21.0951 12.5983 21.9401L12.598 21.9404C12.433 22.0848 12.2206 22.1648 12 22.1648C11.7794 22.1648 11.5671 22.0849 11.4016 21.94L11.4013 21.9397C10.4279 21.0887 9.49075 20.29 8.66603 19.587L8.66332 19.5847L8.66329 19.5847C6.2341 17.5146 4.18441 15.7657 2.76535 14.0535C1.19634 12.1602 0.5 10.4113 0.5 8.52521C0.5 6.66666 1.1368 4.97189 2.27135 3.74103C3.41786 2.49752 4.98889 1.8125 6.70441 1.8125C7.97679 1.8125 9.1384 2.21234 10.1694 3.00971L10.1694 3.00973C10.6925 3.41421 11.1706 3.91241 11.5948 4.49911Z" stroke="none"></path>
</svg>