<svg class="sh-navbar--auth-subicon hover:text-brand-blue" viewBox="0 0 20 20" fill="currentColor" xmlns="http://www.w3.org/2000/svg">
<path d="M6.70911 5.90324C6.71794 5.91207 6.72571 5.92149 6.73392 5.93067C8.62011 4.44505 11.2967 4.45009 13.1777 5.94567C13.1853 5.93715 13.1925 5.92844 13.2006 5.92028L16.6263 2.49456C12.8438 -0.849159 7.12836 -0.83072 3.35156 2.54562L6.70911 5.90324Z" fill="#cccccc"></path>
<path d="M17.5053 3.37384L14.0797 6.79956C14.0702 6.80901 14.0601 6.81745 14.0502 6.8262C15.5159 8.70501 15.5108 11.3586 14.0352 13.2322C14.0444 13.2404 14.0538 13.2481 14.0626 13.257L17.4543 16.6486C20.8306 12.8718 20.849 7.15638 17.5053 3.37384Z" fill="#cccccc"></path>
<path d="M5.82962 13.257C5.83845 13.2481 5.84786 13.2403 5.85708 13.2322C4.37643 11.3523 4.37643 8.68718 5.85704 6.80732C5.84786 6.79915 5.83845 6.79134 5.82962 6.78251L2.47668 3.42953C-0.825431 7.20063 -0.82629 12.8514 2.47848 16.608L5.82962 13.257Z" fill="#cccccc"></path>
<path d="M13.1832 14.1363C13.1744 14.1274 13.1666 14.118 13.1584 14.1088C11.2785 15.5894 8.61347 15.5894 6.73356 14.1088C6.7254 14.118 6.71759 14.1274 6.70876 14.1363L3.35547 17.4895C7.11191 20.8263 12.787 20.836 16.5702 17.5233L13.1832 14.1363Z" fill="#cccccc"></path>
</svg>