<svg width="122" height="36" viewBox="0 0 122 36" fill="none" xmlns="http://www.w3.org/2000/svg">
<path d="M41.5425 26.0657H40.9799H40.5889L39.7886 26.8422L39.8092 27.1515L40.2825 34.0009L32.9216 31.1223L29.3795 29.7377C27.525 30.127 25.5584 30.3374 23.521 30.3374C12.4236 30.3374 3.42548 24.1277 3.42548 16.466C3.42548 8.8043 12.4214 2.59458 23.521 2.59458C28.9702 2.59458 33.9118 4.09282 37.5293 6.52326H40.6278C36.498 2.56091 29.9626 0 22.6063 0C10.1232 0 0 7.37129 0 16.466C0 25.5607 10.1232 32.932 22.6109 32.932C24.9753 32.932 27.2529 32.6668 29.3955 32.1765L41.5448 36L40.3054 27.0652L41.5425 26.0657Z" fill="#6FD1D2"/>
<path d="M16.2116 18.1285C16.2345 19.3805 17.3755 19.8856 18.6035 19.8856C19.5045 19.8856 20.6455 19.5615 20.6455 18.5514C20.6455 17.6824 19.3512 17.3794 17.1126 16.9354C15.3129 16.5713 13.5133 15.9863 13.5133 14.1472C13.5133 11.4811 16.015 10.793 18.4526 10.793C20.9336 10.793 23.2158 11.561 23.4582 14.1261H20.4923C20.4054 13.0151 19.4816 12.7121 18.3634 12.7121C17.6614 12.7121 16.6301 12.8341 16.6301 13.6821C16.6301 14.7132 18.3863 14.8542 20.163 15.2372C21.9855 15.6202 23.7623 16.2262 23.7623 18.1664C23.7623 20.9124 21.1715 21.8026 18.5829 21.8026C15.9486 21.8026 13.3807 20.8935 13.248 18.1264H16.2116V18.1285Z" fill="white"/>
<path d="M36.651 25.199H33.5342V20.2098H33.4908C32.7659 21.3419 31.2727 21.8048 29.9121 21.8048C27.8266 21.8048 25.1055 20.4118 25.1055 16.3716C25.1055 13.5035 26.7519 10.7974 30.1979 10.7974C31.602 10.7974 32.942 11.2624 33.644 12.4134H33.6875V11.0793H36.651V25.199ZM30.9205 19.6438C32.9397 19.6438 33.6417 18.0676 33.6417 16.3506C33.6417 14.7134 32.9397 12.9564 30.9846 12.9564C28.9654 12.9564 28.2177 14.6124 28.2177 16.3085C28.22 17.9877 28.8785 19.6438 30.9205 19.6438Z" fill="white"/>
<path d="M49.6469 21.5226H46.6833V20.0686H46.617C45.8258 21.2407 44.4652 21.8067 43.1481 21.8067C39.8346 21.8067 39 20.0896 39 17.5035V11.0791H42.1168V16.9774C42.1168 18.6945 42.6656 19.5425 44.1153 19.5425C45.8052 19.5425 46.5301 18.6734 46.5301 16.5523V11.0791H49.6469V21.5226Z" fill="white"/>
<path d="M52.1142 14.2926C52.2903 11.6054 54.9017 10.7974 57.449 10.7974C59.7106 10.7974 62.4318 11.2624 62.4318 13.7665V19.1997C62.4318 20.1488 62.5415 21.0978 62.8274 21.5229H59.6671C59.5574 21.1988 59.4705 20.8558 59.4476 20.5128C58.4598 21.4618 57.01 21.8048 55.6288 21.8048C53.4771 21.8048 51.7666 20.8158 51.7666 18.6737C51.7666 16.3106 53.6989 15.7445 55.6288 15.5025C57.5382 15.2395 59.3173 15.3005 59.3173 14.1284C59.3173 12.8953 58.3957 12.7144 57.2981 12.7144C56.1136 12.7144 55.3453 13.1584 55.2355 14.2905H52.1142V14.2926ZM59.315 16.4116C58.7891 16.8366 57.6914 16.8556 56.7242 17.0176C55.7592 17.1986 54.8811 17.5016 54.8811 18.5516C54.8811 19.6227 55.782 19.8857 56.7905 19.8857C59.2281 19.8857 59.315 18.1076 59.315 17.4827V16.4116Z" fill="white"/>
<path d="M73.1728 20.1882H73.1294C72.4045 21.3203 71.1308 21.8043 69.6833 21.8043C66.2601 21.8043 64.5908 19.0982 64.5908 16.209C64.5908 13.4019 66.2807 10.7947 69.617 10.7947C70.957 10.7947 72.2741 11.3208 72.9762 12.3498H73.0196V7.09961H76.1364V21.5223H73.1728V20.1882ZM70.4516 12.9579C68.4096 12.9579 67.7076 14.574 67.7076 16.2911C67.7076 17.9282 68.5194 19.6453 70.4516 19.6453C72.5142 19.6453 73.1294 17.9893 73.1294 16.2722C73.1294 14.574 72.4708 12.9579 70.4516 12.9579Z" fill="white"/>
<path d="M78.7168 7.09961H81.8336V12.5329H81.8999C82.6911 11.3608 84.0517 10.7947 85.2156 10.7947C88.5313 10.7947 89.3637 12.5118 89.3637 15.098V21.5223H86.2469V15.624C86.2469 13.907 85.6981 13.0589 84.2483 13.0589C82.5585 13.0589 81.8336 13.928 81.8336 16.0491V21.5223H78.7168V7.09961Z" fill="white"/>
<path d="M94.5289 16.9987C94.6158 18.8168 95.583 19.6438 97.3164 19.6438C98.5672 19.6438 99.5779 18.9367 99.7746 18.2907H102.519C101.641 20.7548 99.7746 21.8048 97.2066 21.8048C93.6279 21.8048 91.4121 19.5427 91.4121 16.3106C91.4121 13.1794 93.7605 10.7974 97.2066 10.7974C101.069 10.7974 102.935 13.7875 102.715 16.9987H94.5289ZM99.6008 15.1806C99.3149 13.7265 98.6358 12.9585 97.1197 12.9585C95.144 12.9585 94.5723 14.3725 94.5289 15.1806H99.6008Z" fill="white"/>
<path d="M104.881 7.09961H107.998V21.5223H104.881V7.09961Z" fill="white"/>
<path d="M110.454 11.0793H113.418V12.4134H113.461C114.207 11.3024 115.437 10.7974 116.841 10.7974C120.397 10.7974 122 13.4424 122 16.4137C122 19.2019 120.333 21.8069 117.017 21.8069C115.656 21.8069 114.36 21.2619 113.614 20.2308H113.571V25.2012H110.454V11.0793ZM118.883 16.3316C118.883 14.6755 118.158 12.9585 116.162 12.9585C114.12 12.9585 113.461 14.6356 113.461 16.3316C113.461 18.0277 114.163 19.6438 116.182 19.6438C118.224 19.6438 118.883 18.0277 118.883 16.3316Z" fill="white"/>
</svg>
